# xmcd
#
# Track frame offsets: 
#        150
#        18653
#        31469
#        55038
#        72096
#        94414
#        114245
#        139755
#        164279
#        197148
#
# Disc length: 3190 seconds
#
# Revision: 2
# Processed by: cddbd v1.5.2PL0 Copyright (c) Steve Scherf et al.
# Submitted via: ExactAudioCopy v0.95a5
#
DISCID=860c740a
DTITLE=Various Artist - Wysluchaj mojej piesni Panie - Festiwal Breakout
DYEAR=2009
DGENRE=Rock
TTITLE0=1984 - Wielki ogien
TTITLE1=Pawel Kukiz - Takie moje miasto jest
TTITLE2=Pawel Kukiz - Anna
TTITLE3=Nie-bo - Chcialabym byc s³oncem
TTITLE4=Nie-bo - Do kogo idziesz
TTITLE5=Dzem - Nauczylem siê niewiary
TTITLE6=Dzem - Pojdziesz tylko z cieniem
TTITLE7=Dzem - Ten o tobie film
TTITLE8=Dzem and Jozef Skrzek - Jedz ostroznie, nie popedzaj kol
TTITLE9=Dzem and Jozef Skrzek - Co sie stalo kwiatom
EXTD=
EXTT0=
EXTT1=
EXTT2=
EXTT3=
EXTT4=
EXTT5=
EXTT6=
EXTT7=
EXTT8=
EXTT9=
PLAYORDER=
